<svg aria-hidden="true" style="position: absolute; width: 0; height: 0; overflow: hidden;" version="1.1" xmlns="http://www.w3.org/2000/svg" xmlns:xlink="http://www.w3.org/1999/xlink">
<defs>
<symbol id="logo" viewBox="0 0 91 32">
<path fill="#fff" d="M0 0l91.022 0.003v31.983l-91.022 0.014v-32zM29.706 2.108h-27.61v27.783h27.61v-27.783zM88.935 2.103h-57.133v27.783h57.133v-27.782zM60.019 16.942v5.111c0 0.772 0.178 1.332 0.528 1.682 0.356 0.349 0.791 0.526 1.313 0.526 0.519 0 0.957-0.176 1.31-0.526s0.528-0.91 0.528-1.681v-5.111h1.74v5.148c0 1.22-0.348 2.159-1.045 2.821-0.697 0.664-1.54 0.998-2.532 0.998-1.003 0-1.849-0.334-2.541-0.998-0.692-0.662-1.040-1.601-1.040-2.821v-5.148h1.74zM70.871 16.851c0.607 0 1.207 0.134 1.803 0.4 0.618 0.279 1.147 0.639 1.604 1.075l-0.002-0.002-1.136 1.052c-0.322-0.26-0.695-0.475-1.1-0.626l-0.028-0.009c-0.435-0.161-0.814-0.24-1.143-0.24h-0.098c-0.372 0-0.717 0.077-1.040 0.235s-0.485 0.408-0.485 0.755c0 0.27 0.127 0.469 0.382 0.595 0.257 0.128 0.621 0.222 1.090 0.28l0.708 0.078c0.984 0.117 1.751 0.387 2.3 0.806 0.551 0.417 0.827 1.057 0.827 1.919 0 0.83-0.324 1.492-0.965 1.985-0.645 0.494-1.467 0.747-2.464 0.755h-0.077c-0.831 0-1.568-0.168-2.212-0.501s-1.154-0.764-1.53-1.289l1.132-1.049c0.228 0.32 0.568 0.597 1.021 0.836s0.984 0.355 1.589 0.355h0.078c0.511-0.008 0.92-0.11 1.228-0.304s0.462-0.457 0.462-0.787c0-0.356-0.141-0.612-0.417-0.766-0.279-0.158-0.682-0.267-1.212-0.336l-0.692-0.078c-1.992-0.238-2.987-1.046-2.987-2.434 0-0.814 0.308-1.462 0.926-1.946 0.618-0.489 1.395-0.74 2.34-0.758h0.098zM51.726 16.853c1.244 0 2.305 0.443 3.181 1.324 0.88 0.886 1.321 1.953 1.321 3.205 0 1.249-0.441 2.32-1.321 3.203-0.875 0.88-1.936 1.323-3.18 1.323s-2.303-0.443-3.178-1.323c-0.875-0.883-1.31-1.953-1.31-3.203 0-1.252 0.434-2.319 1.31-3.205 0.875-0.881 1.934-1.324 3.177-1.324zM40.015 16.943v3.59h3.416v-3.59h1.74v8.88h-1.74v-3.641h-3.416v3.641h-1.739v-8.88h1.739zM82.408 16.942v1.65h-4.135v1.94h3.819v1.65h-3.819v1.991h4.135v1.649h-5.874v-8.88h5.874zM25.747 6.304v2.1h-17.389v15.181h15.301v-6.539h-7.755v-2.101h9.843v10.74h-19.476v-19.381h19.476zM51.726 18.502c-0.782 0-1.434 0.27-1.96 0.811-0.528 0.542-0.788 1.23-0.788 2.069 0 0.843 0.26 1.537 0.788 2.073 0.526 0.537 1.178 0.806 1.961 0.806 0.79 0 1.445-0.27 1.973-0.806 0.523-0.536 0.788-1.23 0.788-2.074 0-0.838-0.265-1.527-0.796-2.069-0.528-0.541-1.183-0.811-1.965-0.811zM42.171 6.093c1.311 0 2.419 0.491 3.329 1.471l-1.135 1.052c-0.581-0.585-1.311-0.876-2.194-0.876-0.782 0-1.434 0.27-1.96 0.806-0.528 0.536-0.788 1.23-0.788 2.074 0 0.838 0.26 1.529 0.788 2.068 0.526 0.542 1.178 0.814 1.96 0.814 0.597 0 1.125-0.165 1.589-0.496v-1.535h-1.616v-1.318h3.355v3.523c-0.91 0.982-2.018 1.473-3.328 1.473-1.244 0-2.303-0.443-3.178-1.326-0.875-0.881-1.31-1.951-1.31-3.203 0-1.249 0.434-2.32 1.31-3.203s1.934-1.323 3.177-1.323zM70.872 6.079c0.605 0 1.207 0.134 1.801 0.401 0.619 0.277 1.149 0.637 1.604 1.074l-0.002-0.002-1.136 1.052c-0.322-0.262-0.695-0.477-1.1-0.627l-0.027-0.009c-0.432-0.16-0.814-0.24-1.141-0.24h-0.101c-0.371 0-0.716 0.077-1.040 0.235-0.324 0.155-0.485 0.409-0.485 0.756 0 0.269 0.127 0.469 0.384 0.595 0.257 0.128 0.619 0.222 1.091 0.28l0.705 0.075c0.983 0.117 1.75 0.387 2.299 0.806 0.552 0.416 0.828 1.060 0.828 1.921 0 0.828-0.321 1.492-0.965 1.983-0.642 0.496-1.464 0.747-2.464 0.758h-0.078c-0.83 0-1.567-0.169-2.212-0.502-0.642-0.336-1.152-0.763-1.53-1.289l1.135-1.051c0.225 0.323 0.567 0.6 1.021 0.835 0.451 0.238 0.984 0.358 1.586 0.358h0.078c0.514-0.008 0.92-0.112 1.227-0.304 0.308-0.195 0.462-0.459 0.462-0.788 0-0.355-0.14-0.612-0.416-0.768-0.279-0.155-0.679-0.267-1.21-0.337l-0.695-0.075c-1.992-0.238-2.987-1.049-2.987-2.436 0-0.811 0.308-1.46 0.926-1.946s1.397-0.737 2.34-0.755h0.1zM49.893 6.17v5.111c0 0.772 0.178 1.332 0.528 1.681 0.356 0.35 0.791 0.526 1.313 0.526 0.519 0 0.957-0.176 1.31-0.526s0.528-0.91 0.528-1.681v-5.111h1.74v5.148c0 1.22-0.348 2.159-1.045 2.821-0.697 0.664-1.54 0.998-2.532 0.998-1.003 0-1.849-0.334-2.541-0.998-0.692-0.662-1.040-1.601-1.040-2.821v-5.148h1.74zM64.796 6.17v1.65h-4.135v1.94h3.819v1.65h-3.819v1.99h4.134v1.65h-5.874v-8.88h5.875zM82.761 6.168v1.65h-2.421v7.229h-1.74v-7.229h-2.419v-1.65h6.581z"></path>
</symbol>
    <symbol id="click" viewBox="0 0 32 32">
        <path fill="none" stroke="#fff" style="stroke: var(--color1, #fff)" stroke-linejoin="miter" stroke-linecap="butt" stroke-miterlimit="10" stroke-width="1.0667" d="M25 21c0 4.95-4.050 9-9 9s-9-4.050-9-9v-10c0-4.95 4.050-9 9-9s9 4.050 9 9v10z"></path>
        <path fill="none" stroke="#fff" style="stroke: var(--color1, #fff)" stroke-linejoin="miter" stroke-linecap="butt" stroke-miterlimit="4" stroke-width="1.0667" d="M16 6.933v5.333"></path>
    </symbol>
</defs>
</svg>
